<svg xmlns="http://www.w3.org/2000/svg" width="32" height="32"><style>path {fill: #000000;}@media (prefers-color-scheme:dark) {path: #ffffff;}</style><path d="M16.575 3.076V0h-5.218v17.144c-.017 2.41-1.028 3.614-3.034 3.615-.919 0-1.655-.27-2.21-.81-.554-.54-.841-1.3-.862-2.276H-.001c-.008 1.633.347 2.986 1.064 4.058a6.51 6.51 0 002.907 2.4c1.222.529 2.586.793 4.092.793.993.009 1.982-.118 2.94-.377l5.573-21.471zM26.627 18.312c1.441-.608 2.547-1.517 3.317-2.726.77-1.21 1.155-2.666 1.155-4.37 0-2.471-.793-4.447-2.378-5.926-1.585-1.478-3.815-2.216-6.689-2.214h-3.3l-1.12 4.307h3.396c3.054 0 4.582 1.278 4.582 3.834 0 2.475-1.52 3.711-4.56 3.708H17.4V8.194L12.254 28H17.4v-8.836h3.903L26.096 28H32l-5.373-9.688z"/></svg>